HIERARCHY
ROOT Hips
{
 OFFSET 0.000000 0.000000 0.000000
 CHANNELS 6 Xposition Yposition Zposition Yrotation Xrotation Zrotation
 JOINT Chest
 {
  OFFSET 0.000000 9.581000 -0.001100
  CHANNELS 3 Yrotation Xrotation Zrotation
  JOINT Chest2
  {
   OFFSET 0.000000 9.561100 0.002200
   CHANNELS 3 Yrotation Xrotation Zrotation
   JOINT Chest3
   {
    OFFSET 0.000000 9.521100 0.000000
    CHANNELS 3 Yrotation Xrotation Zrotation
    JOINT Chest4
    {
     OFFSET 0.000000 9.511400 0.000000
     CHANNELS 3 Yrotation Xrotation Zrotation
     JOINT Neck
     {
      OFFSET 0.000000 14.375100 0.000000
      CHANNELS 3 Yrotation Xrotation Zrotation
      JOINT Head
      {
       OFFSET 0.000000 8.901200 0.004600
       CHANNELS 3 Yrotation Xrotation Zrotation
       End Site
       {
        OFFSET 0.000000 16.962200 0.002400
       }
      }
     }
     JOINT RightCollar
     {
      OFFSET -2.920100 9.518800 0.000000
      CHANNELS 3 Yrotation Xrotation Zrotation
      JOINT RightShoulder
      {
       OFFSET -13.664500 0.000000 0.000000
       CHANNELS 3 Yrotation Xrotation Zrotation
       JOINT RightElbow
       {
        OFFSET 0.000000 -29.999200 0.000000
        CHANNELS 3 Yrotation Xrotation Zrotation
        JOINT RightWrist
        {
         OFFSET 0.000000 -24.253600 0.000000
         CHANNELS 3 Yrotation Xrotation Zrotation
         End Site
         {
          OFFSET 0.000000 -17.918900 0.000000
         }
        }
       }
      }
     }
     JOINT LeftCollar
     {
      OFFSET 2.920100 9.518800 0.000000
      CHANNELS 3 Yrotation Xrotation Zrotation
      JOINT LeftShoulder
      {
       OFFSET 13.664500 0.000000 0.000000
       CHANNELS 3 Yrotation Xrotation Zrotation
       JOINT LeftElbow
       {
        OFFSET 0.000000 -29.999200 0.000000
        CHANNELS 3 Yrotation Xrotation Zrotation
        JOINT LeftWrist
        {
         OFFSET 0.000000 -24.253600 0.000000
         CHANNELS 3 Yrotation Xrotation Zrotation
         End Site
         {
          OFFSET 0.000000 -17.918900 0.000000
         }
        }
       }
      }
     }
    }
   }
  }
 }
 JOINT RightHip
 {
  OFFSET -7.797300 0.005300 0.000500
  CHANNELS 3 Yrotation Xrotation Zrotation
  JOINT RightKnee
  {
   OFFSET 0.000000 -40.663400 -0.000500
   CHANNELS 3 Yrotation Xrotation Zrotation
   JOINT RightAnkle
   {
    OFFSET 0.000000 -39.523700 -0.000900
    CHANNELS 3 Yrotation Xrotation Zrotation
    JOINT RightToe
    {
     OFFSET 0.000000 -6.418000 14.485300
     CHANNELS 3 Yrotation Xrotation Zrotation
     End Site
     {
      OFFSET 0.000000 -1.465200 6.326400
     }
    }
   }
  }
 }
 JOINT LeftHip
 {
  OFFSET 7.797300 0.005300 0.000500
  CHANNELS 3 Yrotation Xrotation Zrotation
  JOINT LeftKnee
  {
   OFFSET 0.000000 -40.663400 -0.000500
   CHANNELS 3 Yrotation Xrotation Zrotation
   JOINT LeftAnkle
   {
    OFFSET 0.000000 -39.523700 -0.000900
    CHANNELS 3 Yrotation Xrotation Zrotation
    JOINT LeftToe
    {
     OFFSET 0.000000 -6.418000 14.485300
     CHANNELS 3 Yrotation Xrotation Zrotation
     End Site
     {
      OFFSET 0.000000 -1.465200 6.326400
     }
    }
   }
  }
 }
}
MOTION
Frames: 7
Frame Time: 0.008333
0.000000 86.422400 0.000000 0.000000 -5.767877 0.000000 0.000000 11.653817 0.000000 0.000000 -5.885947 0.000000 0.000000 -0.000000 0.000000 0.000000 -0.000000 0.000000 0.000000 12.528835 0.000000 0.000000 0.711642 0.000000 0.000000 -0.000000 0.000000 0.000000 0.000000 -90.000000 0.000000 -2.309062 0.000000 0.000000 2.309062 0.000000 0.000000 -0.000000 0.000000 0.000000 -0.000000 90.000000 0.000000 -2.309062 0.000000 0.000000 2.309062 0.000000 0.000000 8.520406 0.000000 0.000000 1.905762 0.000000 -0.000000 -4.658285 0.000000 0.000000 -0.000000 0.000000 0.000000 8.520406 0.000000 0.000000 1.905762 0.000000 -0.000000 -4.658285 0.000000 0.000000 -0.000000 0.000000
-13.339772 126.911175 33.238831 -160.828568 -49.515170 -2.705995 -4.137121 26.046017 -0.924708 -0.632742 4.394776 -0.026569 -1.039222 6.892415 -0.045540 -3.311896 21.387874 -0.600726 0.856372 14.410314 1.326759 0.590765 -10.603857 1.184725 1.907230 3.204135 1.164069 3.358425 -8.129308 -7.894188 -91.483393 -66.768174 138.508399 3.132370 16.091682 -11.872308 -9.775520 -1.135514 -1.750888 -6.110250 -9.750326 10.734475 51.242135 -56.049555 -97.192750 7.599989 -2.494907 5.071681 -6.604926 -23.477389 -10.926903 -10.515409 78.821448 -11.872399 10.264237 -16.385332 3.204176 0.003297 -0.001675 0.001461 4.440757 5.562529 -1.853022 128.541177 65.181374 146.832872 10.700072 9.898586 3.211322 0.005709 -0.009436 0.002529
-13.338239 126.913044 33.237292 -160.854966 -49.534712 -2.696116 -4.128455 26.036338 -0.914985 -0.645223 4.349987 -0.018725 -1.028766 6.916810 -0.052985 -3.316509 21.372147 -0.597345 0.648674 14.503884 1.121264 0.420928 -10.510574 1.017223 1.893973 3.285517 1.164890 3.364523 -8.184261 -7.876893 -91.408668 -66.747124 138.444652 3.123208 16.106269 -11.822298 -9.757027 -1.066786 -1.768015 -6.132371 -9.782753 10.751806 51.261639 -56.042407 -97.209825 7.600057 -2.484322 5.084707 -6.609629 -23.460102 -10.918495 -10.484655 78.819250 -11.851693 10.267657 -16.385962 3.203239 -0.000130 -0.002265 -0.000058 4.455318 5.579442 -1.845285 128.544141 65.180357 146.841154 10.813434 10.050221 2.871700 -0.003231 0.029812 -0.001432
-13.337238 126.912615 33.238017 -160.859291 -49.536507 -2.694077 -4.131810 26.023590 -0.913624 -0.653465 4.327010 -0.015028 -1.029379 6.904113 -0.051768 -3.316394 21.372183 -0.598076 0.436548 14.595383 0.918555 0.250857 -10.401586 0.847405 1.879304 3.351129 1.169970 3.367595 -8.245505 -7.864115 -91.341645 -66.732528 138.389928 3.131009 16.124017 -11.792580 -9.741395 -1.014270 -1.778889 -6.150623 -9.815561 10.770073 51.285339 -56.032289 -97.225665 7.597043 -2.473727 5.076254 -6.611701 -23.459832 -10.917122 -10.481371 78.819447 -11.849595 10.263906 -16.387580 3.202974 -0.001468 -0.002414 -0.000651 4.452328 5.582105 -1.850231 128.546281 65.172509 146.843635 10.828405 10.071636 2.812946 -0.004405 0.032739 -0.001953
-13.336701 126.911516 33.239541 -160.857476 -49.533607 -2.690436 -4.141559 26.005709 -0.917831 -0.661396 4.313468 -0.014629 -1.033360 6.883616 -0.049860 -3.307221 21.403599 -0.606592 0.219875 14.672175 0.726828 0.082402 -10.274729 0.679407 1.860802 3.378822 1.185081 3.345909 -8.343546 -7.844056 -91.178367 -66.736505 138.259784 3.142285 16.142564 -11.773688 -9.722229 -0.996116 -1.769366 -6.182739 -9.864785 10.798089 51.305248 -55.998377 -97.238253 7.554569 -2.475107 5.058442 -6.614744 -23.465916 -10.921675 -10.468362 78.822302 -11.838907 10.262169 -16.388305 3.201931 -0.002380 -0.002430 -0.001055 4.441519 5.587842 -1.859900 128.542584 65.169767 146.831239 10.783293 10.007358 2.945546 -0.002687 0.014870 -0.001191
-13.334269 126.911093 33.240013 -160.879659 -49.536731 -2.678851 -4.160478 25.953780 -0.920422 -0.634118 4.358234 -0.021638 -1.040754 6.858568 -0.047290 -3.317107 21.371522 -0.598829 0.015271 14.819420 0.517010 -0.085493 -10.130157 0.518438 1.868254 3.449156 1.174112 3.324755 -8.413241 -7.836265 -91.093476 -66.730404 138.195494 3.150974 16.157609 -11.759951 -9.698090 -0.934455 -1.799014 -6.198223 -9.906477 10.816565 51.354989 -56.007570 -97.290175 7.573443 -2.457160 5.065385 -6.612628 -23.467713 -10.912864 -10.440370 78.823553 -11.817969 10.267594 -16.384751 3.200505 -0.003372 -0.002950 -0.001494 4.446445 5.596648 -1.854549 128.546881 65.171178 146.826496 10.763149 9.971671 3.012919 -0.003800 0.009284 -0.001684
-13.331853 126.910812 33.240425 -160.894982 -49.541268 -2.669990 -4.156676 25.931967 -0.916973 -0.641920 4.351709 -0.022281 -1.030392 6.879981 -0.051480 -3.330893 21.324292 -0.594471 -0.186379 14.977893 0.318478 -0.254138 -9.968882 0.367803 1.874770 3.509276 1.173249 3.314465 -8.466406 -7.838732 -91.065702 -66.727004 138.175784 3.156628 16.168816 -11.753283 -9.684055 -0.884761 -1.816123 -6.198702 -9.920355 10.817804 51.387296 -56.008657 -97.326123 7.575183 -2.444040 5.071466 -6.613436 -23.469073 -10.911006 -10.419919 78.826415 -11.799018 10.295586 -16.372322 3.194400 0.000470 -0.001588 0.000208 4.450005 5.606430 -1.853556 128.550800 65.170373 146.828873 10.749182 9.940545 3.055100 -0.004794 0.010791 -0.002124
